<?xml version="1.0" encoding="utf-8"?>
<!-- Generator: Adobe Illustrator 16.0.4, SVG Export Plug-In . SVG Version: 6.00 Build 0)  -->
<!DOCTYPE svg PUBLIC "-//W3C//DTD SVG 1.1//EN" "http://www.w3.org/Graphics/SVG/1.1/DTD/svg11.dtd">
<svg version="1.1" id="Capa_1" xmlns="http://www.w3.org/2000/svg" xmlns:xlink="http://www.w3.org/1999/xlink" x="0px" y="0px"
	 width="400px" height="400px" viewBox="0 0 400 400" enable-background="new 0 0 400 400" xml:space="preserve">
<polygon fill="#F2EDE7" points="87.5,318.088 36.304,317.088 44.444,346.401 36.304,375.714 87.5,374.714 "/>
<polygon fill="#FFFFFF" points="91.5,317.088 40.304,317.088 48.444,346.401 40.304,375.714 91.5,375.714 "/>
<polygon fill="#E4E3E1" points="63.435,323.24 87.798,310 88.036,323.175 "/>
<polygon fill="#F2EDE7" points="313.305,318.088 364.5,317.088 356.36,346.401 364.5,375.714 313.305,374.714 "/>
<polygon fill="#FFFFFF" points="309.305,317.088 360.5,317.088 352.36,346.401 360.5,375.714 309.305,375.714 "/>
<polygon fill="#E4E3E1" points="336.036,323.17 312.276,310 312.039,323.175 "/>
<g id="Circle_2_">
	<g>
		<g>
			<g>
				<g>
					<g>
						<g>
							<g>
								<g>
									<defs>
										<circle id="SVGID_1_" cx="200" cy="185" r="180"/>
									</defs>
									<clipPath id="SVGID_2_">
										<use xlink:href="#SVGID_1_"  overflow="visible"/>
									</clipPath>
									<rect x="20" y="209.514" clip-path="url(#SVGID_2_)" fill="#E6C7B9" width="360" height="165.486"/>
								</g>
							</g>
						</g>
					</g>
				</g>
			</g>
		</g>
	</g>
	<g>
		<g>
			<g>
				<g>
					<g>
						<g>
							<g>
								<g>
									<defs>
										<circle id="SVGID_3_" cx="200" cy="185" r="180"/>
									</defs>
									<clipPath id="SVGID_4_">
										<use xlink:href="#SVGID_3_"  overflow="visible"/>
									</clipPath>
									<rect x="10" y="5" clip-path="url(#SVGID_4_)" fill="#F2EDE7" width="380" height="204.516"/>
								</g>
							</g>
						</g>
					</g>
				</g>
			</g>
		</g>
	</g>
	<g>
		<g>
			<g>
				<g>
					<g>
						<g>
							<g>
								<g>
									<defs>
										<circle id="SVGID_5_" cx="200" cy="185" r="180"/>
									</defs>
									<clipPath id="SVGID_6_">
										<use xlink:href="#SVGID_5_"  overflow="visible"/>
									</clipPath>
									<polygon clip-path="url(#SVGID_6_)" fill="#D3807C" points="293.486,272.318 293.486,238.794 337.377,234.087
										346.377,272.318 									"/>
								</g>
							</g>
						</g>
					</g>
				</g>
			</g>
		</g>
	</g>
	<g>
		<g>
			<g>
				<g>
					<g>
						<g>
							<g>
								<g>
									<defs>
										<circle id="SVGID_7_" cx="200" cy="185" r="180"/>
									</defs>
									<clipPath id="SVGID_8_">
										<use xlink:href="#SVGID_7_"  overflow="visible"/>
									</clipPath>
									<polygon clip-path="url(#SVGID_8_)" fill="#D3807C" points="370.394,241.188 337.377,234.087 337.377,272.318
										370.394,272.318 									"/>
								</g>
							</g>
						</g>
					</g>
				</g>
			</g>
		</g>
	</g>
</g>
<polygon fill="#FFFFFF" points="233.975,109.721 228.277,87.951 238.932,66.119 246.867,67.461 248.846,53.83 277.85,51.598
	281.564,56.203 294.95,53.336 310.316,76.884 305.609,86.794 312.549,86.301 322.212,103.733 310.069,125.522 302.139,124.034
	289.991,140.58 267.934,134.883 266.691,125.522 260.992,132.986 248.602,127.011 245.875,112.076 "/>
<polygon fill="#FFFFFF" points="244.505,138.422 238.932,133.581 231.09,135.735 228.65,143.553 233.225,150.491 245.729,150.491
	245.729,145.384 240.764,142.654 "/>
<polygon fill="#FFFFFF" points="125.157,177.699 131.987,173.424 129.542,165.791 122.409,165.177 118.437,173.27 "/>
<polygon fill="#FFFFFF" points="84.769,143.544 70.222,138.796 62.085,112.066 77.863,94.668 76.632,79.692 117.476,65.389
	127.911,85.853 136.541,87.245 140.732,112.066 136.048,116.772 139.793,125.055 131.612,137.811 125.202,135.037 122.735,151.097
	91.916,156.569 "/>
<polygon id="Paper_1_" fill="#FFFFFF" points="66.486,254.568 145.493,254.568 152.693,288.146 59.286,288.146 "/>
<polygon id="Paper_2_" fill="#FFFFFF" points="80.886,222.889 146.934,222.889 153.413,249.988 73.686,249.988 "/>
<polygon fill="#EFDAB9" points="138.262,159.364 192.594,199.043 209.557,187.839 145.895,132.106 144.257,133.029 "/>
<polygon fill="#E3CDA4" points="144.257,133.029 167.808,119.756 221.977,174.564 209.557,187.839 "/>
<polygon fill="#723F3C" points="148.292,166.689 156.311,143.148 145.17,132.514 144.257,133.029 138.262,159.364 "/>
<polygon fill="#602F2D" points="156.311,143.148 177.652,129.719 167.808,119.756 144.257,133.029 "/>
<polygon fill="#CEB68E" points="177.652,150.907 192.585,164.511 197.044,159.742 183.185,146.544 "/>
<polygon fill="#723F3C" points="152.505,163.143 158.125,167.522 163.261,154.515 157.32,149.857 "/>
<path fill="#F6F6F6" d="M170.46,178.768l7.947-11.247c0,0-12.057-9.806-15.608-2.484C159.296,172.268,170.46,178.768,170.46,178.768
	z"/>
<path fill="#602F2D" d="M170.46,178.768l4.766-6.746c0,0-7.067-5.308-9.506-1.476C163.553,173.956,170.46,178.768,170.46,178.768z"
	/>
<polygon fill="#E3CDA4" points="214.107,182.975 220.652,188.448 212.77,196.27 205.691,190.393 209.557,187.839 "/>
<rect x="188.576" y="188.484" fill="#EFDAB9" width="8.244" height="11.988"/>
<polygon fill="#E3CDA4" points="202.333,166.034 200.029,161.826 190.977,178.002 192.696,182.975 "/>
<polygon fill="#EFDAB9" points="182.69,187.839 193.289,193.439 208.381,193.439 221.656,187.417 221.656,182.382 209.557,187.839
	221.977,174.564 213.171,170.93 202.333,184.096 212.02,169.155 202.333,166.034 192.696,182.975 196.284,172.746 188.2,170.93 "/>
<polygon fill="#E3CDA4" points="221.656,182.382 216.747,180.154 209.557,187.839 "/>
<polygon fill="#E3CDA4" points="182.69,187.839 181.729,183.592 187.35,166.88 188.2,170.93 "/>
<polygon fill="#E3CDA4" points="196.284,172.746 195.07,168.827 187.35,166.88 188.2,170.93 "/>
<polygon fill="#E3CDA4" points="200.029,161.826 209.557,165.2 212.02,169.155 202.333,166.034 "/>
<polygon fill="#E3CDA4" points="213.171,170.93 211.568,166.88 219.366,170.179 221.977,174.564 "/>
<polygon fill="#E3CDA4" points="211.568,166.88 202.333,184.096 213.171,170.93 "/>
<rect x="137.696" y="249.03" transform="matrix(0.7072 -0.707 0.707 0.7072 -140.8441 175.0174)" fill="#EFDAB9" width="6.39" height="17.062"/>
<polygon fill="#EFDAB9" points="108.482,244.498 113.173,249.596 119.805,243.236 114.844,238.232 "/>
<rect x="119.618" y="230.645" transform="matrix(0.7071 -0.7071 0.7071 0.7071 -135.4245 162.3293)" fill="#EFDAB9" width="17.226" height="27.973"/>
<polygon fill="#E8C47C" points="150.147,214.143 111.884,250.83 115.571,256.741 121.887,260.152 156.168,219.557 155.173,215.143
	"/>
<polygon fill="#EFDAB9" points="123.775,240.609 117.907,246.475 132.035,260.604 137.893,254.746 "/>
<path fill="#EFDAB9" d="M111.884,250.83c0,0-2.725,10.723-8.14,16.738l3.211,2.811c0,0,7.014-8.734,14.933-10.227l-6.319-3.41
	L111.884,250.83z"/>
<polygon fill="#FFE183" points="115.665,256.793 155.173,215.143 150.147,214.143 111.884,250.83 "/>
<path fill="#575756" d="M110.75,266.445l-3.893-3.252c-0.912,1.582-1.95,3.09-3.114,4.375l0.686,2.809h2.529
	C106.955,270.378,108.413,268.562,110.75,266.445z"/>
<polygon fill="#EAF0F4" points="230.754,177.564 204.521,205.969 280.209,270.698 300.123,245.646 "/>
<rect x="142.975" y="253.996" fill="#EAF0F4" width="65.728" height="16.539"/>
<rect x="183.119" y="200.475" fill="#F5F8F9" width="19.154" height="78.572"/>
<rect x="206.636" y="192.81" transform="matrix(0.893 0.4501 -0.4501 0.893 130.6885 -71.7467)" fill="#F5F8F9" width="19.163" height="92.273"/>
<polygon fill="#D9E3E8" points="258.039,290.688 254.26,298.247 245.35,303.376 235.45,303.376 226.719,293.121 225.818,280.787
	234.369,273.677 243.459,271.697 252.459,275.837 251.648,280.154 255.969,281.326 "/>
<polygon fill="#FBFDFE" points="258.039,290.688 245.499,285.171 241.753,291.171 234.159,293.271 231.145,298.318 235.45,303.376
	245.35,303.376 254.26,298.247 "/>
<polygon fill="#F0F4F7" points="234.159,293.271 225.818,280.787 226.719,293.121 231.145,298.318 "/>
<polygon fill="#FBFDFE" points="234.159,293.271 234.939,283.907 241.005,276.396 234.641,276.707 225.818,280.787 "/>
<polygon fill="#FBFDFE" points="252.459,275.837 234.641,276.707 225.818,280.787 234.369,273.677 243.459,271.697 "/>
<polygon fill="#F5F8F9" points="258.039,290.688 245.499,285.171 248.109,280.95 255.969,281.326 "/>
<polygon fill="#D9E3E8" points="251.648,280.154 248.109,280.95 255.969,281.326 "/>
<polygon fill="#F5F8F9" points="234.939,283.907 241.005,276.396 252.459,275.837 251.648,280.154 "/>
<polygon fill="#EAF0F4" points="234.159,293.271 234.939,283.907 248.107,280.95 241.753,291.171 "/>
<polygon fill="#EAF0F4" points="234.939,283.907 225.818,280.787 234.641,276.707 241.005,276.396 "/>
<polygon fill="#E4EBF2" points="235.45,303.376 235.45,299.688 245.499,300.536 253.359,295.172 255.969,289.779 258.039,290.688
	254.26,298.247 245.35,303.376 "/>
<polygon fill="#EAF0F4" points="235.45,299.688 226.719,293.121 235.45,303.376 "/>
<polygon fill="#D9E3E8" points="304.76,303.006 300.979,310.57 292.068,315.697 282.169,315.697 273.439,305.438 272.539,293.105
	281.09,285.997 290.18,284.021 299.18,288.154 298.369,292.477 302.689,293.646 "/>
<polygon fill="#FBFDFE" points="304.76,303.006 292.218,297.486 288.475,303.486 280.879,305.586 277.865,310.643 282.169,315.697
	292.068,315.697 300.979,310.57 "/>
<polygon fill="#F0F4F7" points="280.879,305.586 272.539,293.105 273.439,305.438 277.865,310.643 "/>
<polygon fill="#FBFDFE" points="280.879,305.586 281.66,296.227 287.725,288.717 281.359,289.025 272.539,293.105 "/>
<polygon fill="#FBFDFE" points="299.18,288.154 281.359,289.025 272.539,293.105 281.09,285.997 290.18,284.021 "/>
<polygon fill="#F5F8F9" points="304.76,303.006 292.218,297.486 294.829,293.271 302.689,293.646 "/>
<polygon fill="#D9E3E8" points="298.369,292.477 294.829,293.271 302.689,293.646 "/>
<polygon fill="#F5F8F9" points="281.66,296.227 287.725,288.717 299.18,288.154 298.369,292.477 "/>
<polygon fill="#EAF0F4" points="280.879,305.586 281.66,296.227 294.828,293.271 288.475,303.486 "/>
<polygon fill="#EAF0F4" points="281.66,296.227 272.539,293.105 281.359,289.025 287.725,288.717 "/>
<polygon fill="#E4EBF2" points="282.169,315.697 282.169,312.006 292.218,312.859 300.079,307.496 302.689,302.098 304.76,303.006
	300.979,310.57 292.068,315.697 "/>
<polygon fill="#EAF0F4" points="282.169,312.006 273.439,305.438 282.169,315.697 "/>
<polygon fill="#C77371" points="292.05,161.311 302.271,155.583 324.51,152.827 345.197,156.196 356.439,162.095 345.197,168.461
	324.51,171.225 302.271,167.847 "/>
<polygon fill="#E08C86" points="292.874,168.017 292.05,161.311 302.271,154.863 324.51,152.107 345.197,155.476 356.439,162.095
	355.305,168.466 344.337,161.938 324.499,158.708 303.173,161.35 "/>
<polygon fill="#D9E3E8" points="354.34,162.805 351.953,167.578 346.328,170.816 340.078,170.816 334.567,164.339 334,156.557
	339.396,152.067 345.136,150.817 350.816,153.431 350.306,156.158 353.033,156.896 "/>
<polygon fill="#FBFDFE" points="354.34,162.805 346.423,159.32 344.058,163.108 339.265,164.433 337.361,167.623 340.078,170.816
	346.328,170.816 351.953,167.578 "/>
<polygon fill="#F0F4F7" points="339.265,164.433 334,156.557 334.567,164.339 337.361,167.623 "/>
<polygon fill="#FBFDFE" points="339.265,164.433 339.757,158.525 343.585,153.783 339.567,153.98 334,156.557 "/>
<polygon fill="#FBFDFE" points="350.816,153.431 339.567,153.98 334,156.557 339.396,152.067 345.136,150.817 "/>
<polygon fill="#F5F8F9" points="354.34,162.805 346.423,159.32 348.07,156.659 353.033,156.896 "/>
<polygon fill="#D9E3E8" points="350.306,156.158 348.07,156.659 353.033,156.896 "/>
<polygon fill="#F5F8F9" points="339.757,158.525 343.585,153.783 350.816,153.431 350.306,156.158 "/>
<polygon fill="#EAF0F4" points="339.265,164.433 339.757,158.525 348.07,156.659 344.058,163.108 "/>
<polygon fill="#EAF0F4" points="339.757,158.525 334,156.557 339.567,153.98 343.585,153.783 "/>
<polygon fill="#E4EBF2" points="340.078,170.816 340.078,168.487 346.423,169.023 351.385,165.636 353.033,162.23 354.34,162.805
	351.953,167.578 346.328,170.816 "/>
<polygon fill="#EAF0F4" points="340.078,168.487 334.567,164.339 340.078,170.816 "/>
<polygon fill="#D9E3E8" points="338.5,170.005 336.112,174.777 330.487,178.018 324.238,178.018 318.728,171.539 318.159,163.756
	323.557,159.268 329.296,158.017 334.978,160.63 334.466,163.358 337.193,164.096 "/>
<polygon fill="#FBFDFE" points="338.5,170.005 330.583,166.52 328.219,170.308 323.425,171.633 321.521,174.822 324.238,178.018
	330.487,178.018 336.112,174.777 "/>
<polygon fill="#F0F4F7" points="323.425,171.633 318.159,163.756 318.728,171.539 321.521,174.822 "/>
<polygon fill="#FBFDFE" points="323.425,171.633 323.917,165.725 327.745,160.983 323.728,161.18 318.159,163.756 "/>
<polygon fill="#FBFDFE" points="334.978,160.63 323.728,161.18 318.159,163.756 323.557,159.268 329.296,158.017 "/>
<polygon fill="#F5F8F9" points="338.5,170.005 330.583,166.52 332.23,163.859 337.193,164.096 "/>
<polygon fill="#D9E3E8" points="334.466,163.358 332.23,163.859 337.193,164.096 "/>
<polygon fill="#F5F8F9" points="323.917,165.725 327.745,160.983 334.978,160.63 334.466,163.358 "/>
<polygon fill="#EAF0F4" points="323.425,171.633 323.917,165.725 332.23,163.859 328.219,170.308 "/>
<polygon fill="#EAF0F4" points="323.917,165.725 318.159,163.756 323.728,161.18 327.745,160.983 "/>
<polygon fill="#E4EBF2" points="324.238,178.018 324.238,175.688 330.583,176.223 335.545,172.836 337.193,169.43 338.5,170.005
	336.112,174.777 330.487,178.018 "/>
<polygon fill="#EAF0F4" points="324.238,175.688 318.728,171.539 324.238,178.018 "/>
<polygon fill="#D9E3E8" points="319.779,170.725 317.394,175.498 311.769,178.736 305.52,178.736 300.007,172.26 299.439,164.476
	304.837,159.987 310.575,158.737 316.257,161.351 315.746,164.078 318.473,164.816 "/>
<polygon fill="#FBFDFE" points="319.779,170.725 311.863,167.24 309.498,171.027 304.704,172.354 302.802,175.543 305.52,178.736
	311.769,178.736 317.394,175.498 "/>
<polygon fill="#F0F4F7" points="304.704,172.354 299.439,164.476 300.007,172.26 302.802,175.543 "/>
<polygon fill="#FBFDFE" points="304.704,172.354 305.195,166.445 309.024,161.704 305.008,161.9 299.439,164.476 "/>
<polygon fill="#FBFDFE" points="316.257,161.351 305.008,161.9 299.439,164.476 304.837,159.987 310.575,158.737 "/>
<polygon fill="#F5F8F9" points="319.779,170.725 311.863,167.24 313.511,164.579 318.473,164.816 "/>
<polygon fill="#D9E3E8" points="315.746,164.078 313.511,164.579 318.473,164.816 "/>
<polygon fill="#F5F8F9" points="305.195,166.445 309.024,161.704 316.257,161.351 315.746,164.078 "/>
<polygon fill="#EAF0F4" points="304.704,172.354 305.195,166.445 313.511,164.579 309.498,171.027 "/>
<polygon fill="#EAF0F4" points="305.195,166.445 299.439,164.476 305.008,161.9 309.024,161.704 "/>
<polygon fill="#E4EBF2" points="305.52,178.736 305.52,176.406 311.863,176.943 316.825,173.557 318.473,170.15 319.779,170.725
	317.394,175.498 311.769,178.736 "/>
<polygon fill="#EAF0F4" points="305.52,176.406 300.007,172.26 305.52,178.736 "/>
<polygon fill="#E08C86" points="299.206,219.534 307.311,225.447 324.51,228.104 339.438,225.34 346.219,219.534 356.439,162.095
	345.197,167.741 324.51,170.504 302.271,167.128 292.05,161.311 "/>
<polygon fill="#D3807C" points="347.56,212.002 339.438,218.859 324.51,221.624 307.311,218.967 298.33,212.413 299.206,219.534
	307.311,225.447 324.51,228.104 339.438,225.34 346.219,219.534 "/>
<polygon fill="#D3807C" points="302.271,174.328 324.51,177.703 345.197,174.941 355.031,170.005 356.439,162.095 345.197,167.741
	324.51,170.504 302.271,167.128 292.05,161.311 293.002,169.052 "/>
<rect x="335.247" y="320.031" fill="#F2EDE7" width="8" height="1"/>
<rect x="347.247" y="320.031" fill="#F2EDE7" width="8" height="1"/>
<rect x="335.247" y="372.031" fill="#F2EDE7" width="8" height="1"/>
<rect x="347.247" y="372.031" fill="#F2EDE7" width="8" height="1"/>
<rect x="44.247" y="320.031" fill="#F2EDE7" width="8" height="1"/>
<rect x="56.247" y="320.031" fill="#F2EDE7" width="8" height="1"/>
<rect x="44.247" y="372.031" fill="#F2EDE7" width="8" height="1"/>
<rect x="41.795" y="368.531" transform="matrix(0.2666 -0.9638 0.9638 0.2666 -322.088 314.7784)" fill="#F2EDE7" width="8" height="1"/>
<rect x="45.795" y="356.531" transform="matrix(0.2666 -0.9638 0.9638 0.2666 -307.5889 309.833)" fill="#F2EDE7" width="8" height="1"/>
<polygon fill="#F2EDE7" points="51.379,342.043 52.273,346.039 51.247,349.753 52.21,350.02 53.21,346.4 52.229,341.864 "/>
<rect x="45.795" y="334.531" transform="matrix(-0.2979 -0.9546 0.9546 -0.2979 -255.1921 482.3688)" fill="#F2EDE7" width="7.999" height="1"/>
<rect x="41.795" y="323.531" transform="matrix(-0.2979 -0.9546 0.9546 -0.2979 -249.8831 464.2736)" fill="#F2EDE7" width="7.999" height="1"/>
<rect x="350.543" y="368.531" transform="matrix(-0.2666 -0.9638 0.9638 -0.2666 93.3964 809.1303)" fill="#F2EDE7" width="8" height="1"/>
<rect x="346.543" y="356.531" transform="matrix(-0.2666 -0.9638 0.9638 -0.2666 99.8956 790.0757)" fill="#F2EDE7" width="8" height="1"/>
<polygon fill="#F2EDE7" points="348.958,342.043 348.064,346.039 349.091,349.753 348.127,350.02 347.127,346.4 348.108,341.864 "/>
<rect x="346.543" y="334.531" transform="matrix(0.2979 -0.9546 0.9546 0.2979 -73.7022 569.8555)" fill="#F2EDE7" width="7.999" height="1"/>
<rect x="350.543" y="323.531" transform="matrix(0.2979 -0.9546 0.9546 0.2979 -60.3932 565.9507)" fill="#F2EDE7" width="7.999" height="1"/>
<rect x="56.247" y="372.031" fill="#F2EDE7" width="8" height="1"/>
<polygon fill="#F2EDE7" points="337.363,381.654 71.646,381.727 71.435,324.24 336.036,323.17 "/>
<polygon fill="#F2EDE7" points="329.363,380.654 63.646,382.727 63.435,323.24 328.036,324.17 "/>
<polygon fill="#FFFFFF" points="333.363,381.654 67.646,382.727 67.435,323.24 332.036,323.17 "/>
<rect x="70.247" y="326.031" fill="#F2EDE7" width="8" height="1"/>
<rect x="70.247" y="326.031" fill="#F2EDE7" width="1" height="8"/>
<rect x="70.247" y="338.031" fill="#F2EDE7" width="1" height="8"/>
<rect x="70.247" y="350.031" fill="#F2EDE7" width="1" height="8"/>
<rect x="70.247" y="361.031" fill="#F2EDE7" width="1" height="8"/>
<rect x="70.247" y="372.031" fill="#F2EDE7" width="1" height="8"/>
<rect x="329.247" y="326.031" fill="#F2EDE7" width="1" height="8"/>
<rect x="329.247" y="338.031" fill="#F2EDE7" width="1" height="8"/>
<rect x="329.247" y="350.031" fill="#F2EDE7" width="1" height="8"/>
<rect x="329.247" y="361.031" fill="#F2EDE7" width="1" height="8"/>
<rect x="329.247" y="372.031" fill="#F2EDE7" width="1" height="7.657"/>
<rect x="82.247" y="326.031" fill="#F2EDE7" width="8" height="1"/>
<rect x="94.247" y="326.031" fill="#F2EDE7" width="8" height="1"/>
<rect x="106.247" y="326.031" fill="#F2EDE7" width="8" height="1"/>
<rect x="118.247" y="326.031" fill="#F2EDE7" width="8" height="1"/>
<rect x="130.247" y="326.031" fill="#F2EDE7" width="8" height="1"/>
<rect x="142.247" y="326.031" fill="#F2EDE7" width="8" height="1"/>
<rect x="154.247" y="326.031" fill="#F2EDE7" width="8" height="1"/>
<rect x="166.247" y="326.031" fill="#F2EDE7" width="8" height="1"/>
<rect x="178.247" y="326.031" fill="#F2EDE7" width="8" height="1"/>
<rect x="190.247" y="326.031" fill="#F2EDE7" width="8" height="1"/>
<rect x="202.247" y="326.031" fill="#F2EDE7" width="8" height="1"/>
<rect x="214.247" y="326.031" fill="#F2EDE7" width="8" height="1"/>
<rect x="226.247" y="326.031" fill="#F2EDE7" width="8" height="1"/>
<rect x="238.247" y="326.031" fill="#F2EDE7" width="8" height="1"/>
<rect x="250.247" y="326.031" fill="#F2EDE7" width="8" height="1"/>
<rect x="262.247" y="326.031" fill="#F2EDE7" width="8" height="1"/>
<rect x="274.247" y="326.031" fill="#F2EDE7" width="8" height="1"/>
<rect x="286.247" y="326.031" fill="#F2EDE7" width="8" height="1"/>
<rect x="298.247" y="326.031" fill="#F2EDE7" width="8" height="1"/>
<rect x="310.247" y="326.031" fill="#F2EDE7" width="8" height="1"/>
<rect x="322.247" y="326.031" fill="#F2EDE7" width="8" height="1"/>
<rect x="70.247" y="379.364" transform="matrix(1 -0.0027 0.0027 1 -1.0199 0.2008)" fill="#F2EDE7" width="8" height="1"/>
<rect x="82.247" y="379.333" transform="matrix(1 -0.0026 0.0026 1 -0.9734 0.2224)" fill="#F2EDE7" width="8" height="1"/>
<rect x="94.247" y="379.301" transform="matrix(1 -0.0027 0.0027 1 -1.0196 0.2652)" fill="#F2EDE7" width="8" height="1"/>
<rect x="106.247" y="379.269" transform="matrix(1 -0.0026 0.0026 1 -0.9732 0.2839)" fill="#F2EDE7" width="8" height="1"/>
<rect x="118.247" y="379.237" transform="matrix(1 -0.0027 0.0027 1 -1.0194 0.3297)" fill="#F2EDE7" width="8" height="1"/>
<rect x="130.247" y="379.206" transform="matrix(1 -0.0027 0.0027 1 -1.0192 0.3619)" fill="#F2EDE7" width="8" height="0.999"/>
<rect x="142.247" y="379.174" transform="matrix(1 -0.0027 0.0027 1 -1.0191 0.3941)" fill="#F2EDE7" width="8" height="1"/>
<rect x="154.247" y="379.143" transform="matrix(1 -0.0027 0.0027 1 -1.019 0.4264)" fill="#F2EDE7" width="8" height="1"/>
<rect x="166.247" y="379.11" transform="matrix(1 -0.0027 0.0027 1 -1.0188 0.4586)" fill="#F2EDE7" width="8" height="1"/>
<rect x="178.247" y="379.079" transform="matrix(1 -0.0027 0.0027 1 -1.0187 0.4908)" fill="#F2EDE7" width="8" height="1"/>
<rect x="190.247" y="379.047" transform="matrix(1 -0.0027 0.0027 1 -1.0186 0.523)" fill="#F2EDE7" width="8" height="1"/>
<rect x="202.247" y="379.016" transform="matrix(1 -0.0027 0.0027 1 -1.0185 0.5553)" fill="#F2EDE7" width="8" height="1"/>
<rect x="214.247" y="378.983" transform="matrix(1 -0.0027 0.0027 1 -1.0183 0.5875)" fill="#F2EDE7" width="8" height="1"/>
<rect x="226.247" y="378.952" transform="matrix(1 -0.0027 0.0027 1 -1.0182 0.6197)" fill="#F2EDE7" width="8" height="1"/>
<rect x="238.247" y="378.92" transform="matrix(1 -0.0027 0.0027 1 -1.0182 0.652)" fill="#F2EDE7" width="7.999" height="1"/>
<rect x="250.247" y="378.889" transform="matrix(1 -0.0027 0.0027 1 -1.0179 0.6842)" fill="#F2EDE7" width="8" height="1"/>
<rect x="262.247" y="378.857" transform="matrix(1 -0.0026 0.0026 1 -0.9716 0.6838)" fill="#F2EDE7" width="8" height="1"/>
<rect x="274.247" y="378.825" transform="matrix(1 -0.0027 0.0027 1 -1.0177 0.7486)" fill="#F2EDE7" width="8" height="1"/>
<rect x="286.247" y="378.793" transform="matrix(1 -0.0026 0.0026 1 -0.9714 0.7453)" fill="#F2EDE7" width="8" height="1"/>
<rect x="298.247" y="378.762" transform="matrix(1 -0.0027 0.0027 1 -1.0174 0.8131)" fill="#F2EDE7" width="8" height="1"/>
<rect x="310.247" y="378.73" transform="matrix(1 -0.0026 0.0026 1 -0.9711 0.8068)" fill="#F2EDE7" width="8" height="1"/>
<rect x="322.247" y="378.698" transform="matrix(1 -0.0027 0.0027 1 -1.0172 0.8775)" fill="#F2EDE7" width="8" height="1"/>

<text x="123" y="365" style="fill:#8b4513;font-size:24pt;font-weight:600;">画 画 作 品</text>

</svg>
