<?xml version="1.0" encoding="utf-8"?>
<!-- Generator: Adobe Illustrator 16.0.4, SVG Export Plug-In . SVG Version: 6.00 Build 0)  -->
<!DOCTYPE svg PUBLIC "-//W3C//DTD SVG 1.1//EN" "http://www.w3.org/Graphics/SVG/1.1/DTD/svg11.dtd">
<svg version="1.1" id="Capa_1" xmlns="http://www.w3.org/2000/svg" xmlns:xlink="http://www.w3.org/1999/xlink" x="0px" y="0px"
	 width="400px" height="400px" viewBox="0 0 400 400" enable-background="new 0 0 400 400" xml:space="preserve">
<polygon fill="#F2EDE7" points="313.305,318.088 364.5,317.088 356.36,346.401 364.5,375.714 313.305,374.714 "/>
<polygon fill="#FFFFFF" points="309.305,317.088 360.5,317.088 352.36,346.401 360.5,375.714 309.305,375.714 "/>
<polygon fill="#E4E3E1" points="336.036,323.17 312.276,310 312.039,323.175 "/>
<polygon fill="#F2EDE7" points="87.5,318.088 36.304,317.088 44.444,346.401 36.304,375.714 87.5,374.714 "/>
<polygon fill="#FFFFFF" points="91.5,317.088 40.304,317.088 48.444,346.401 40.304,375.714 91.5,375.714 "/>
<polygon fill="#E4E3E1" points="63.435,323.24 87.798,310 88.036,323.175 "/>
<g id="Circle_2_">
	<g>
		<g>
			<g>
				<g>
					<g>
						<g>
							<g>
								<g>
									<defs>
										<circle id="SVGID_1_" cx="200.001" cy="185" r="180"/>
									</defs>
									<clipPath id="SVGID_2_">
										<use xlink:href="#SVGID_1_"  overflow="visible"/>
									</clipPath>
									<rect x="20.001" y="209.514" clip-path="url(#SVGID_2_)" fill="#E6C7B9" width="360" height="157.486"/>
								</g>
							</g>
						</g>
					</g>
				</g>
			</g>
		</g>
	</g>
	<g>
		<g>
			<g>
				<g>
					<g>
						<g>
							<g>
								<g>
									<defs>
										<circle id="SVGID_3_" cx="200.001" cy="185" r="180"/>
									</defs>
									<clipPath id="SVGID_4_">
										<use xlink:href="#SVGID_3_"  overflow="visible"/>
									</clipPath>
									<rect x="10.001" y="5" clip-path="url(#SVGID_4_)" fill="#F2EDE7" width="380" height="204.514"/>
								</g>
							</g>
						</g>
					</g>
				</g>
			</g>
		</g>
	</g>
	<g>
		<g>
			<g>
				<g>
					<g>
						<g>
							<g>
								<g>
									<defs>
										<circle id="SVGID_5_" cx="200.001" cy="185" r="180"/>
									</defs>
									<clipPath id="SVGID_6_">
										<use xlink:href="#SVGID_5_"  overflow="visible"/>
									</clipPath>
									<polygon clip-path="url(#SVGID_6_)" fill="#D3807C" points="293.486,272.316 293.486,238.793 337.377,234.086
										346.377,272.316 									"/>
								</g>
							</g>
						</g>
					</g>
				</g>
			</g>
		</g>
	</g>
	<g>
		<g>
			<g>
				<g>
					<g>
						<g>
							<g>
								<g>
									<defs>
										<circle id="SVGID_7_" cx="200.001" cy="185" r="180"/>
									</defs>
									<clipPath id="SVGID_8_">
										<use xlink:href="#SVGID_7_"  overflow="visible"/>
									</clipPath>
									<polygon clip-path="url(#SVGID_8_)" fill="#D3807C" points="370.394,241.188 337.377,234.086 337.377,272.316
										370.394,272.316 									"/>
								</g>
							</g>
						</g>
					</g>
				</g>
			</g>
		</g>
	</g>
</g>
<polygon id="Paper_1_" fill="#FFFFFF" points="66.486,254.568 145.493,254.568 152.693,288.146 59.286,288.146 "/>
<polygon fill="#EFDAB9" points="138.263,159.363 192.594,199.041 209.557,187.837 145.817,132.15 144.258,133.029 "/>
<polygon fill="#E3CDA4" points="144.258,133.029 167.809,119.756 221.975,174.564 209.557,187.837 "/>
<polygon fill="#723F3C" points="148.292,166.688 156.31,143.147 145.641,132.249 144.258,133.029 138.263,159.363 "/>
<polygon fill="#602F2D" points="156.31,143.147 177.653,129.719 167.809,119.756 144.258,133.029 "/>
<polygon fill="#CEB68E" points="177.653,150.905 192.585,164.511 197.045,159.74 183.186,146.543 "/>
<polygon fill="#723F3C" points="152.505,163.144 158.125,167.521 163.261,154.515 157.321,149.857 "/>
<path fill="#F6F6F6" d="M170.46,178.768l7.947-11.246c0,0-12.057-9.806-15.608-2.483C159.297,172.266,170.46,178.768,170.46,178.768
	z"/>
<path fill="#602F2D" d="M170.46,178.768l4.766-6.746c0,0-7.068-5.31-9.505-1.476C163.554,173.956,170.46,178.768,170.46,178.768z"/>
<polygon fill="#E3CDA4" points="214.107,182.975 220.652,188.445 212.77,196.268 205.691,190.391 209.557,187.837 "/>
<rect x="188.577" y="188.484" fill="#EFDAB9" width="8.244" height="11.988"/>
<polygon fill="#E3CDA4" points="202.333,166.034 200.029,161.826 190.977,178.002 192.696,182.975 "/>
<polygon fill="#EFDAB9" points="182.69,187.837 193.29,193.439 208.383,193.439 221.658,187.415 221.658,182.382 209.557,187.837
	221.975,174.564 213.172,170.93 202.333,184.096 212.02,169.154 202.333,166.034 192.696,182.975 196.286,172.746 188.199,170.93
	"/>
<polygon fill="#E3CDA4" points="221.658,182.382 216.748,180.154 209.557,187.837 "/>
<polygon fill="#E3CDA4" points="182.69,187.837 181.729,183.592 187.351,166.879 188.199,170.93 "/>
<polygon fill="#E3CDA4" points="196.286,172.746 195.069,168.826 187.351,166.879 188.199,170.93 "/>
<polygon fill="#E3CDA4" points="200.029,161.826 209.557,165.2 212.02,169.154 202.333,166.034 "/>
<polygon fill="#E3CDA4" points="213.172,170.93 211.566,166.879 219.366,170.18 221.975,174.564 "/>
<polygon fill="#E3CDA4" points="211.566,166.879 202.333,184.096 213.172,170.93 "/>
<rect x="137.687" y="249.047" transform="matrix(0.707 -0.7073 0.7073 0.707 -140.8922 175.1221)" fill="#EFDAB9" width="6.387" height="17.068"/>
<polygon fill="#EFDAB9" points="108.483,244.498 113.173,249.593 119.805,243.236 114.845,238.232 "/>
<rect x="119.62" y="230.642" transform="matrix(0.7071 -0.7071 0.7071 0.7071 -135.4185 162.3192)" fill="#EFDAB9" width="17.225" height="27.975"/>
<polygon fill="#E8C47C" points="150.148,214.145 111.884,250.83 115.571,256.742 121.888,260.154 156.17,219.555 155.174,215.141
	"/>
<polygon fill="#EFDAB9" points="123.776,240.609 117.907,246.473 132.035,260.605 137.894,254.746 "/>
<path fill="#EFDAB9" d="M111.884,250.83c0,0-2.725,10.723-8.14,16.738l3.209,2.811c0,0,7.014-8.734,14.933-10.225l-6.319-3.411
	L111.884,250.83z"/>
<polygon fill="#FFE183" points="115.667,256.793 155.174,215.141 150.148,214.145 111.884,250.83 "/>
<path fill="#575756" d="M110.752,266.445l-3.892-3.25c-0.912,1.578-1.951,3.086-3.115,4.373l0.686,2.807h2.527
	C106.956,270.379,108.414,268.561,110.752,266.445z"/>
<polygon fill="#EAF0F4" points="230.755,177.564 204.523,205.968 280.209,270.697 300.123,245.646 "/>
<rect x="142.975" y="253.995" fill="#EAF0F4" width="65.729" height="16.541"/>
<rect x="183.12" y="200.473" fill="#F5F8F9" width="19.159" height="78.575"/>
<polygon fill="#F5F8F9" points="245.557,202.062 228.447,193.439 186.918,275.822 204.027,284.447 "/>
<polygon fill="#C77371" points="292.052,161.311 302.271,155.583 324.51,152.827 345.197,156.196 356.439,162.096 345.197,168.46
	324.51,171.223 302.271,167.848 "/>
<polygon fill="#E08C86" points="292.855,167.86 292.052,161.311 302.271,154.863 324.51,152.107 345.197,155.475 356.439,162.096
	355.316,168.406 344.336,161.938 324.499,158.708 303.173,161.349 "/>
<polygon fill="#E08C86" points="299.206,219.533 307.312,225.447 324.51,228.102 339.438,225.338 346.219,219.533 356.439,162.096
	345.197,167.74 324.51,170.504 302.271,167.127 292.052,161.311 "/>
<polygon fill="#D3807C" points="347.558,212.001 339.438,218.859 324.51,221.622 307.312,218.967 298.33,212.412 299.206,219.533
	307.312,225.447 324.51,228.102 339.438,225.338 346.219,219.533 "/>
<polygon fill="#D3807C" points="302.271,174.327 324.51,177.703 345.197,174.941 355.03,170.005 356.439,162.096 345.197,167.74
	324.51,170.504 302.271,167.127 292.052,161.311 293.002,169.052 "/>
<rect x="335.247" y="320.031" fill="#F2EDE7" width="8" height="1"/>
<rect x="347.247" y="320.031" fill="#F2EDE7" width="8" height="1"/>
<rect x="335.247" y="372.031" fill="#F2EDE7" width="8" height="1"/>
<rect x="347.247" y="372.031" fill="#F2EDE7" width="8" height="1"/>
<rect x="44.247" y="320.031" fill="#F2EDE7" width="8" height="1"/>
<rect x="56.247" y="320.031" fill="#F2EDE7" width="8" height="1"/>
<rect x="44.247" y="372.031" fill="#F2EDE7" width="8" height="1"/>
<rect x="41.795" y="368.531" transform="matrix(0.2666 -0.9638 0.9638 0.2666 -322.088 314.7784)" fill="#F2EDE7" width="8" height="1"/>
<rect x="45.795" y="356.531" transform="matrix(0.2666 -0.9638 0.9638 0.2666 -307.5889 309.833)" fill="#F2EDE7" width="8" height="1"/>
<polygon fill="#F2EDE7" points="51.379,342.043 52.273,346.039 51.247,349.753 52.21,350.02 53.21,346.4 52.229,341.864 "/>
<rect x="45.795" y="334.531" transform="matrix(-0.2979 -0.9546 0.9546 -0.2979 -255.1921 482.3688)" fill="#F2EDE7" width="7.999" height="1"/>
<rect x="41.795" y="323.531" transform="matrix(-0.2979 -0.9546 0.9546 -0.2979 -249.8831 464.2736)" fill="#F2EDE7" width="7.999" height="1"/>
<rect x="350.543" y="368.531" transform="matrix(-0.2666 -0.9638 0.9638 -0.2666 93.3964 809.1303)" fill="#F2EDE7" width="8" height="1"/>
<rect x="346.543" y="356.531" transform="matrix(-0.2666 -0.9638 0.9638 -0.2666 99.8956 790.0757)" fill="#F2EDE7" width="8" height="1"/>
<polygon fill="#F2EDE7" points="348.958,342.043 348.064,346.039 349.091,349.753 348.127,350.02 347.127,346.4 348.108,341.864 "/>
<rect x="346.543" y="334.531" transform="matrix(0.2979 -0.9546 0.9546 0.2979 -73.7022 569.8555)" fill="#F2EDE7" width="7.999" height="1"/>
<rect x="350.543" y="323.531" transform="matrix(0.2979 -0.9546 0.9546 0.2979 -60.3932 565.9507)" fill="#F2EDE7" width="7.999" height="1"/>
<rect x="56.247" y="372.031" fill="#F2EDE7" width="8" height="1"/>
<polygon fill="#F2EDE7" points="337.363,381.654 71.646,381.727 71.435,324.24 336.036,323.17 "/>
<polygon fill="#F2EDE7" points="329.363,380.654 63.646,382.727 63.435,323.24 328.036,324.17 "/>
<polygon fill="#FFFFFF" points="333.363,381.654 67.646,382.727 67.435,323.24 332.036,323.17 "/>
<rect x="70.247" y="326.031" fill="#F2EDE7" width="8" height="1"/>
<rect x="70.247" y="326.031" fill="#F2EDE7" width="1" height="8"/>
<rect x="70.247" y="338.031" fill="#F2EDE7" width="1" height="8"/>
<rect x="70.247" y="350.031" fill="#F2EDE7" width="1" height="8"/>
<rect x="70.247" y="361.031" fill="#F2EDE7" width="1" height="8"/>
<rect x="70.247" y="372.031" fill="#F2EDE7" width="1" height="8"/>
<rect x="329.247" y="326.031" fill="#F2EDE7" width="1" height="8"/>
<rect x="329.247" y="338.031" fill="#F2EDE7" width="1" height="8"/>
<rect x="329.247" y="350.031" fill="#F2EDE7" width="1" height="8"/>
<rect x="329.247" y="361.031" fill="#F2EDE7" width="1" height="8"/>
<rect x="329.247" y="372.031" fill="#F2EDE7" width="1" height="7.657"/>
<rect x="82.247" y="326.031" fill="#F2EDE7" width="8" height="1"/>
<rect x="94.247" y="326.031" fill="#F2EDE7" width="8" height="1"/>
<rect x="106.247" y="326.031" fill="#F2EDE7" width="8" height="1"/>
<rect x="118.247" y="326.031" fill="#F2EDE7" width="8" height="1"/>
<rect x="130.247" y="326.031" fill="#F2EDE7" width="8" height="1"/>
<rect x="142.247" y="326.031" fill="#F2EDE7" width="8" height="1"/>
<rect x="154.247" y="326.031" fill="#F2EDE7" width="8" height="1"/>
<rect x="166.247" y="326.031" fill="#F2EDE7" width="8" height="1"/>
<rect x="178.247" y="326.031" fill="#F2EDE7" width="8" height="1"/>
<rect x="190.247" y="326.031" fill="#F2EDE7" width="8" height="1"/>
<rect x="202.247" y="326.031" fill="#F2EDE7" width="8" height="1"/>
<rect x="214.247" y="326.031" fill="#F2EDE7" width="8" height="1"/>
<rect x="226.247" y="326.031" fill="#F2EDE7" width="8" height="1"/>
<rect x="238.247" y="326.031" fill="#F2EDE7" width="8" height="1"/>
<rect x="250.247" y="326.031" fill="#F2EDE7" width="8" height="1"/>
<rect x="262.247" y="326.031" fill="#F2EDE7" width="8" height="1"/>
<rect x="274.247" y="326.031" fill="#F2EDE7" width="8" height="1"/>
<rect x="286.247" y="326.031" fill="#F2EDE7" width="8" height="1"/>
<rect x="298.247" y="326.031" fill="#F2EDE7" width="8" height="1"/>
<rect x="310.247" y="326.031" fill="#F2EDE7" width="8" height="1"/>
<rect x="322.247" y="326.031" fill="#F2EDE7" width="8" height="1"/>
<rect x="70.247" y="379.364" transform="matrix(1 -0.0027 0.0027 1 -1.0199 0.2008)" fill="#F2EDE7" width="8" height="1"/>
<rect x="82.247" y="379.333" transform="matrix(1 -0.0026 0.0026 1 -0.9734 0.2224)" fill="#F2EDE7" width="8" height="1"/>
<rect x="94.247" y="379.301" transform="matrix(1 -0.0027 0.0027 1 -1.0196 0.2652)" fill="#F2EDE7" width="8" height="1"/>
<rect x="106.247" y="379.269" transform="matrix(1 -0.0026 0.0026 1 -0.9732 0.2839)" fill="#F2EDE7" width="8" height="1"/>
<rect x="118.247" y="379.237" transform="matrix(1 -0.0027 0.0027 1 -1.0194 0.3297)" fill="#F2EDE7" width="8" height="1"/>
<rect x="130.247" y="379.206" transform="matrix(1 -0.0027 0.0027 1 -1.0192 0.3619)" fill="#F2EDE7" width="8" height="0.999"/>
<rect x="142.247" y="379.174" transform="matrix(1 -0.0027 0.0027 1 -1.0191 0.3941)" fill="#F2EDE7" width="8" height="1"/>
<rect x="154.247" y="379.143" transform="matrix(1 -0.0027 0.0027 1 -1.019 0.4264)" fill="#F2EDE7" width="8" height="1"/>
<rect x="166.247" y="379.11" transform="matrix(1 -0.0027 0.0027 1 -1.0188 0.4586)" fill="#F2EDE7" width="8" height="1"/>
<rect x="178.247" y="379.079" transform="matrix(1 -0.0027 0.0027 1 -1.0187 0.4908)" fill="#F2EDE7" width="8" height="1"/>
<rect x="190.247" y="379.047" transform="matrix(1 -0.0027 0.0027 1 -1.0186 0.523)" fill="#F2EDE7" width="8" height="1"/>
<rect x="202.247" y="379.016" transform="matrix(1 -0.0027 0.0027 1 -1.0185 0.5553)" fill="#F2EDE7" width="8" height="1"/>
<rect x="214.247" y="378.983" transform="matrix(1 -0.0027 0.0027 1 -1.0183 0.5875)" fill="#F2EDE7" width="8" height="1"/>
<rect x="226.247" y="378.952" transform="matrix(1 -0.0027 0.0027 1 -1.0182 0.6197)" fill="#F2EDE7" width="8" height="1"/>
<rect x="238.247" y="378.92" transform="matrix(1 -0.0027 0.0027 1 -1.0182 0.652)" fill="#F2EDE7" width="7.999" height="1"/>
<rect x="250.247" y="378.889" transform="matrix(1 -0.0027 0.0027 1 -1.0179 0.6842)" fill="#F2EDE7" width="8" height="1"/>
<rect x="262.247" y="378.857" transform="matrix(1 -0.0026 0.0026 1 -0.9716 0.6838)" fill="#F2EDE7" width="8" height="1"/>
<rect x="274.247" y="378.825" transform="matrix(1 -0.0027 0.0027 1 -1.0177 0.7486)" fill="#F2EDE7" width="8" height="1"/>
<rect x="286.247" y="378.793" transform="matrix(1 -0.0026 0.0026 1 -0.9714 0.7453)" fill="#F2EDE7" width="8" height="1"/>
<rect x="298.247" y="378.762" transform="matrix(1 -0.0027 0.0027 1 -1.0174 0.8131)" fill="#F2EDE7" width="8" height="1"/>
<rect x="310.247" y="378.73" transform="matrix(1 -0.0026 0.0026 1 -0.9711 0.8068)" fill="#F2EDE7" width="8" height="1"/>
<rect x="322.247" y="378.698" transform="matrix(1 -0.0027 0.0027 1 -1.0172 0.8775)" fill="#F2EDE7" width="8" height="1"/>

<text x="123" y="365" style="fill:#d3807c;font-size:24pt;font-weight:600;">画 画 作 品</text>

</svg>
